<svg width="36" height="24" viewBox="0 0 36 24" fill="none" xmlns="http://www.w3.org/2000/svg">
<path d="M18.2001 0C10.2001 0 3.3681 4.976 0.600098 12C3.3681 19.024 10.2001 24 18.2001 24C26.2001 24 33.0321 19.024 35.8001 12C33.0321 4.976 26.2001 0 18.2001 0ZM18.2001 20C13.7841 20 10.2001 16.416 10.2001 12C10.2001 7.584 13.7841 4 18.2001 4C22.6161 4 26.2001 7.584 26.2001 12C26.2001 16.416 22.6161 20 18.2001 20ZM18.2001 7.2C15.5441 7.2 13.4001 9.344 13.4001 12C13.4001 14.656 15.5441 16.8 18.2001 16.8C20.8561 16.8 23.0001 14.656 23.0001 12C23.0001 9.344 20.8561 7.2 18.2001 7.2Z" fill="#B7B7B7"/>
</svg>
